{"title":"Dark.Matter.S01E09.HDTV.480p.x264.AAC-VYTO [P2PDL]","uid":12207542,"size":157145729,"categoryP":"video","categoryS":"hd___tv_shows","magnet":"?xt=urn:btih:96c69c7dbd06caa7857ecc96e18f991db73d2495&amp;dn=Dark.Matter.S01E09.HDTV.480p.x264.AAC-VYTO+%5BP2PDL%5D&amp;tr=udp%3A%2F%2Ftracker.openbittorrent.com%3A80&amp;tr=udp%3A%2F%2Fopen.demonii.com%3A1337&amp;tr=udp%3A%2F%2Ftracker.coppersurfer.tk%3A6969&amp;tr=udp%3A%2F%2Fexodus.desync.com%3A6969","seeders":2,"leechers":1,"uploader":"ValidusVyto","files":6,"time":1439018440,"description":"____    ____ ____    ____ .___________.  ______   \n     /   /      /   / |           | /  __    \n    /   /      /   /  `---|  |----`|  |  |  | \n        /     _    _/       |  |     |  |  |  | \n       /        |  |         |  |     |  `--'  | \n    __/         |__|         |__|      ______/  \n                                                  \nPresenting Small Encodes with quality for years!\n                                                                                                   \n                                                                                                   \n\nDark.Matter.S01E09.HDTV.480p.x264.AAC-VYTO\n\n\nGeneral\nFormat                         : MPEG-4\nFile size                      : 146 MiB\nDuration                       : 43mn 3s\nOverall bit rate               : 473 Kbps\n\nVideo\nFormat                         : AVC\nBit rate                       : 438 Kbps\nWidth                          : 720 pixels\nHeight                         : 400 pixels\nDisplay aspect ratio           : 16:9\nFrame rate mode                : Constant\nFrame rate                     : 23.976 fps\nBit depth                      : 8 bits\nStream size                    : 135 MiB (93%)\nWriting library                : x264 core 148 r2579\n\nAudio\nFormat                         : AAC\nBit rate mode                  : Variable\nBit rate                       : 32.0 Kbps\nChannel(s)                     : 2 channels \nChannel positions              : Front: L R \nSampling rate                  : 48.0 KHz\nStream size                    : 9.86 MiB (7%)\n\n\nScreenshots:\n &lt;a href=&quot;\nhttp://ititli.com/jV&quot; rel=&quot;nofollow&quot; target=&quot;_NEW&quot;&gt;\nhttp://ititli.com/jV&lt;/a&gt; &lt;a href=&quot;\nhttp://ititli.com/jt&quot; rel=&quot;nofollow&quot; target=&quot;_NEW&quot;&gt;\nhttp://ititli.com/jt&lt;/a&gt; &lt;a href=&quot;\nhttp://ititli.com/jL&quot; rel=&quot;nofollow&quot; target=&quot;_NEW&quot;&gt;\nhttp://ititli.com/jL&lt;/a&gt; &lt;a href=&quot;\nhttp://ititli.com/jd&quot; rel=&quot;nofollow&quot; target=&quot;_NEW&quot;&gt;\nhttp://ititli.com/jd&lt;/a&gt; &lt;a href=&quot;\nhttp://ititli.com/j0&quot; rel=&quot;nofollow&quot; target=&quot;_NEW&quot;&gt;\nhttp://ititli.com/j0&lt;/a&gt; &lt;a href=&quot;\nhttp://ititli.com/jA&quot; rel=&quot;nofollow&quot; target=&quot;_NEW&quot;&gt;\nhttp://ititli.com/jA&lt;/a&gt; &lt;a href=&quot;\nhttp://ititli.com/jl&quot; rel=&quot;nofollow&quot; target=&quot;_NEW&quot;&gt;\nhttp://ititli.com/jl&lt;/a&gt; &lt;a href=&quot;\nhttp://ititli.com/jm&quot; rel=&quot;nofollow&quot; target=&quot;_NEW&quot;&gt;\nhttp://ititli.com/jm&lt;/a&gt; &lt;a href=&quot;\nhttp://ititli.com/jx&quot; rel=&quot;nofollow&quot; target=&quot;_NEW&quot;&gt;\nhttp://ititli.com/jx&lt;/a&gt; &lt;a href=&quot;\nhttp://ititli.com/j7&quot; rel=&quot;nofollow&quot; target=&quot;_NEW&quot;&gt;\nhttp://ititli.com/j7&lt;/a&gt; &lt;a href=&quot;\nhttp://ititli.com/jC&quot; rel=&quot;nofollow&quot; target=&quot;_NEW&quot;&gt;\nhttp://ititli.com/jC&lt;/a&gt; &lt;a href=&quot;\nhttp://ititli.com/jF&quot; rel=&quot;nofollow&quot; target=&quot;_NEW&quot;&gt;\nhttp://ititli.com/jF&lt;/a&gt;\n\n----------------------------------------------------------------------------------------------------\n\n\nEncoder Notes: Looking For Early Access To Anything You Can Provide DVDScr, R5, DVDR, BluRay, Direct\nAudio, Music Releases and Seedboxes. If You Got anything to offer please contact us.\n\nSupport us by donating BC - 1FgwdzPsd1y25Gea8wP1qni35uGCtmkRCD","torrent":{"xt":"urn:btih:96c69c7dbd06caa7857ecc96e18f991db73d2495","amp;dn":"Dark.Matter.S01E09.HDTV.480p.x264.AAC-VYTO+%5BP2PDL%5D","amp;tr":["udp%3A%2F%2Ftracker.openbittorrent.com%3A80","udp%3A%2F%2Fopen.demonii.com%3A1337","udp%3A%2F%2Ftracker.coppersurfer.tk%3A6969","udp%3A%2F%2Fexodus.desync.com%3A6969"],"infoHash":"96c69c7dbd06caa7857ecc96e18f991db73d2495","infoHashBuffer":{"type":"Buffer","data":[150,198,156,125,189,6,202,167,133,126,204,150,225,143,153,29,183,61,36,149]},"announce":[],"urlList":[]}}